<svg xmlns="http://www.w3.org/2000/svg" viewBox="0 0 128 128" width="128" height="128">
<defs>
  <clipPath id="clip"><circle cx="64" cy="64" r="62"/></clipPath>
  <radialGradient id="bg" cx="50%" cy="30%" r="80%">
    <stop offset="0%" stop-color="#fff0e2"/><stop offset="100%" stop-color="#c2410c"/>
  </radialGradient>
  <linearGradient id="iris" x1="0" y1="0" x2="0" y2="1">
    <stop offset="0%" stop-color="#f472b6"/><stop offset="100%" stop-color="#c2410c"/>
  </linearGradient>
  <linearGradient id="cloth" x1="0" y1="0" x2="0" y2="1">
    <stop offset="0%" stop-color="#ff7a45"/><stop offset="100%" stop-color="#c2410c"/>
  </linearGradient>
</defs>
<circle cx="64" cy="64" r="64" fill="url(#bg)"/>
<g clip-path="url(#clip)">
  <circle cx="64" cy="30" r="46" fill="#ffd3a8" opacity=".35"/>
  <circle cx="18" cy="20" r="2.2" fill="#fff" opacity=".55"/><circle cx="41" cy="34" r="2.2" fill="#fff" opacity=".55"/><circle cx="64" cy="20" r="2.2" fill="#fff" opacity=".55"/><circle cx="87" cy="34" r="2.2" fill="#fff" opacity=".55"/><circle cx="110" cy="20" r="2.2" fill="#fff" opacity=".55"/>
  <path d="M100 16.1 q7.2 8.1 1.8 14.4 q-0.9 -5.3999999999999995 -4.5 -2.6999999999999997 q-6.3 3.6 -5.3999999999999995 -6.3 q-4.5 -3.6 -0.9 -8.1 z" fill="#fff"/>
  <path d="M10 128 q8 -34 54 -34 t54 34 z" fill="url(#cloth)"/>
  <path d="M46 96 q18 14 36 0 l4 8 q-22 16 -44 0 z" fill="#fff" opacity=".55"/>
  <ellipse cx="64" cy="74" rx="41.3952" ry="37.386" fill="#441700"/>
  <ellipse cx="64" cy="74" rx="33" ry="31" fill="#ffe4d6"/>
  <ellipse cx="33.64" cy="81.44" rx="3.96" ry="5.61" fill="#ffe4d6" opacity=".9"/>
  <ellipse cx="94.36" cy="81.44" rx="3.96" ry="5.61" fill="#ffe4d6" opacity=".9"/>
  
    <g>
      <ellipse cx="50.14" cy="78.96" rx="9.24" ry="9.299999999999999" fill="#fffdf8"/>
      <ellipse cx="50.14" cy="79.518" rx="7.5767999999999995" ry="8.556" fill="url(#iris)"/>
      <ellipse cx="50.14" cy="80.262" rx="3.1416000000000004" ry="4.835999999999999" fill="#241634" opacity=".9"/>
      <circle cx="47.1832" cy="75.612" r="2.772" fill="#fff" opacity=".96"/>
      <circle cx="52.912" cy="82.122" r="1.2012" fill="#fff" opacity=".72"/>
      <path d="M40.715199999999996 72.264 q9.24 -7.997999999999999 18.849600000000002 0"
            stroke="#2b2140" stroke-width="2.2319999999999998" fill="none" stroke-linecap="round"/>
      <path d="M41.824 86.958 q8.316 2.7899999999999996 16.632 0"
            stroke="#2b2140" stroke-width="0.9299999999999999" fill="none" stroke-linecap="round" opacity=".55"/>
      <circle cx="40.438" cy="70.58999999999999" r="1.2012" fill="#2b2140" opacity=".5"/>
    </g>
  
    <g>
      <ellipse cx="77.86" cy="78.96" rx="9.24" ry="9.299999999999999" fill="#fffdf8"/>
      <ellipse cx="77.86" cy="79.518" rx="7.5767999999999995" ry="8.556" fill="url(#iris)"/>
      <ellipse cx="77.86" cy="80.262" rx="3.1416000000000004" ry="4.835999999999999" fill="#241634" opacity=".9"/>
      <circle cx="74.9032" cy="75.612" r="2.772" fill="#fff" opacity=".96"/>
      <circle cx="80.632" cy="82.122" r="1.2012" fill="#fff" opacity=".72"/>
      <path d="M68.4352 72.264 q9.24 -7.997999999999999 18.849600000000002 0"
            stroke="#2b2140" stroke-width="2.2319999999999998" fill="none" stroke-linecap="round"/>
      <path d="M69.544 86.958 q8.316 2.7899999999999996 16.632 0"
            stroke="#2b2140" stroke-width="0.9299999999999999" fill="none" stroke-linecap="round" opacity=".55"/>
      <circle cx="68.158" cy="70.58999999999999" r="1.2012" fill="#2b2140" opacity=".5"/>
    </g>
  <ellipse cx="42.22" cy="90.12" rx="5.28" ry="2.79" fill="#ff8fa8" opacity=".38"/>
  <ellipse cx="85.78" cy="90.12" rx="5.28" ry="2.79" fill="#ff8fa8" opacity=".38"/>
  <path d="M60 89.5 q4 5 8 0" fill="none" stroke="#c4626f" stroke-width="2" stroke-linecap="round"/>
  <path d="M30.339999999999996 62.84 q9.24 -22.32 20.46 -9.299999999999999
                     q3.96 -18.599999999999998 16.5 1.8599999999999999 q6.6000000000000005 -19.22 17.16 -3.1
                     q9.9 -15.5 11.879999999999999 9.299999999999999 q-19.8 15.5 -66 3.1 z" fill="#8b5e3c"/>
  <path d="M35.620000000000005 48.58 l-3.3000000000000003 -19.8 l16.5 11.879999999999999 z" fill="#8b5e3c" stroke="#c2410c" stroke-width="0.99"/>
                    <path d="M92.38 48.58 l3.3000000000000003 -19.8 l-16.5 11.879999999999999 z" fill="#8b5e3c" stroke="#c2410c" stroke-width="0.99"/>
</g>
<circle cx="64" cy="64" r="61" fill="none" stroke="#ff7a45" stroke-width="4" opacity=".9"/>
<circle cx="64" cy="64" r="63" fill="none" stroke="#ffffff" stroke-width="1.5" opacity=".35"/>
</svg>