<svg xmlns="http://www.w3.org/2000/svg" viewBox="0 0 128 128" width="128" height="128">
<defs>
  <clipPath id="clip"><circle cx="64" cy="64" r="62"/></clipPath>
  <radialGradient id="bg" cx="50%" cy="30%" r="80%">
    <stop offset="0%" stop-color="#fffbeb"/><stop offset="100%" stop-color="#b45309"/>
  </radialGradient>
  <radialGradient id="bglow" cx="50%" cy="50%" r="50%">
    <stop offset="0%" stop-color="#fbbf24" stop-opacity=".55"/><stop offset="100%" stop-color="#fbbf24" stop-opacity="0"/>
  </radialGradient>
  <linearGradient id="iris" x1="0" y1="0" x2="0" y2="1">
    <stop offset="0%" stop-color="#4ade80"/><stop offset="100%" stop-color="#b45309"/>
  </linearGradient>
  <linearGradient id="cloth" x1="0" y1="0" x2="0" y2="1">
    <stop offset="0%" stop-color="#fbbf24"/><stop offset="100%" stop-color="#b45309"/>
  </linearGradient>
  <radialGradient id="face" cx="50%" cy="38%" r="70%">
    <stop offset="0%" stop-color="#ffffff" stop-opacity=".25"/><stop offset="100%" stop-color="#000000" stop-opacity=".06"/>
  </radialGradient>
  <filter id="aglow" x="-60%" y="-60%" width="220%" height="220%">
      <feGaussianBlur stdDeviation="4" result="b"/><feMerge><feMergeNode in="b"/><feMergeNode in="SourceGraphic"/></feMerge>
    </filter>
</defs>
<circle cx="64" cy="64" r="64" fill="url(#bg)"/>
<circle cx="64" cy="64" r="60" fill="url(#bglow)"/>
<g clip-path="url(#clip)">
  <circle cx="64" cy="30" r="46" fill="#fef3c7" opacity=".35"/>
  <circle cx="18" cy="20" r="2.2" fill="#fff" opacity=".55"/><circle cx="41" cy="34" r="2.2" fill="#fff" opacity=".55"/><circle cx="64" cy="20" r="2.2" fill="#fff" opacity=".55"/><circle cx="87" cy="34" r="2.2" fill="#fff" opacity=".55"/><circle cx="110" cy="20" r="2.2" fill="#fff" opacity=".55"/>
  <path d="M100 17 l2.6999999999999997 5.58 l6.12 0.9 l-4.5 4.32 l1.08 6.12 l-5.3999999999999995 -2.88 l-5.3999999999999995 2.88 l1.08 -6.12 l-4.5 -4.32 l6.12 -0.9 z" fill="#fff"/>
  <path d="M10 128 q8 -34 54 -34 t54 34 z" fill="url(#cloth)"/>
  <path d="M46 96 q18 14 36 0 l4 8 q-22 16 -44 0 z" fill="#fff" opacity=".55"/>
  <ellipse cx="64" cy="74" rx="42.24" ry="41.54" fill="#8260ae"/>
                    <path d="M100.3264 70.9 q23.099999999999998 34.1 -3.3000000000000003 58.9 q-16.5 -21.7 -13.86 -52.699999999999996 z" fill="#c9a7f5"/>
  <ellipse cx="64" cy="74" rx="33" ry="31" fill="#ffd9c4"/>
  <ellipse cx="64" cy="74" rx="33" ry="31" fill="url(#face)"/>
  <ellipse cx="33.64" cy="81.44" rx="3.96" ry="5.61" fill="#ffd9c4" opacity=".9"/>
  <ellipse cx="94.36" cy="81.44" rx="3.96" ry="5.61" fill="#ffd9c4" opacity=".9"/>
  
    <g>
      <ellipse cx="50.14" cy="78.96" rx="9.24" ry="9.299999999999999" fill="#fffdf8"/>
      <ellipse cx="50.14" cy="79.518" rx="7.5767999999999995" ry="8.556" fill="url(#iris)"/>
      <ellipse cx="50.14" cy="79.89" rx="2.772" ry="4.278" fill="#241634" opacity=".92"/>
      <circle cx="47.1832" cy="75.612" r="2.772" fill="#fff" opacity=".96"/>
      <circle cx="52.912" cy="82.122" r="1.2012" fill="#fff" opacity=".72"/>
      <path d="M40.715199999999996 72.264 q9.24 -7.997999999999999 18.849600000000002 0" stroke="#2b2140" stroke-width="2.2319999999999998" fill="none" stroke-linecap="round"/>
      <path d="M41.824 86.958 q8.316 2.7899999999999996 16.632 0"
            stroke="#2b2140" stroke-width="0.9299999999999999" fill="none" stroke-linecap="round" opacity=".55"/>
      <circle cx="40.438" cy="70.58999999999999" r="1.2012" fill="#2b2140" opacity=".5"/>
    </g>
  
    <g>
      <ellipse cx="77.86" cy="78.96" rx="9.24" ry="9.299999999999999" fill="#fffdf8"/>
      <ellipse cx="77.86" cy="79.518" rx="7.5767999999999995" ry="8.556" fill="url(#iris)"/>
      <ellipse cx="77.86" cy="79.89" rx="2.772" ry="4.278" fill="#241634" opacity=".92"/>
      <circle cx="74.9032" cy="75.612" r="2.772" fill="#fff" opacity=".96"/>
      <circle cx="80.632" cy="82.122" r="1.2012" fill="#fff" opacity=".72"/>
      <path d="M68.4352 72.264 q9.24 -7.997999999999999 18.849600000000002 0" stroke="#2b2140" stroke-width="2.2319999999999998" fill="none" stroke-linecap="round"/>
      <path d="M69.544 86.958 q8.316 2.7899999999999996 16.632 0"
            stroke="#2b2140" stroke-width="0.9299999999999999" fill="none" stroke-linecap="round" opacity=".55"/>
      <circle cx="68.158" cy="70.58999999999999" r="1.2012" fill="#2b2140" opacity=".5"/>
    </g>
  <ellipse cx="42.22" cy="90.12" rx="5.28" ry="2.79" fill="#ff8fa8" opacity=".38"/>
  <ellipse cx="85.78" cy="90.12" rx="5.28" ry="2.79" fill="#ff8fa8" opacity=".38"/>
  <path d="M47.5 87.02 q16.5 17.05 33 0" fill="none" stroke="#c4626f" stroke-width="2.6" stroke-linecap="round"/>
  <path d="M29.68 63.46 q5.28 -27.900000000000002 28.38 -19.22
                     q13.86 4.96 11.879999999999999 11.16 q-11.22 5.58 -16.5 -3.1
                     q3.3000000000000003 13.64 29.7 9.92 q7.92 15.5 -23.099999999999998 21.7
                     q-39.6 -9.299999999999999 -30.360000000000003 -31 z" fill="#c9a7f5"/>
  <path d="M37.599999999999994 46.099999999999994 q-7.26 -23.099999999999998 5.28 -19.8 q8.58 5.28 6.6000000000000005 16.5 z" fill="#c9a7f5" stroke="#b45309" stroke-width="0.8250000000000001"/>
                    <path d="M90.4 46.099999999999994 q7.26 -23.099999999999998 -5.28 -19.8 q-8.58 5.28 -6.6000000000000005 16.5 z" fill="#c9a7f5" stroke="#b45309" stroke-width="0.8250000000000001"/>
</g>
<circle cx="64" cy="64" r="60" fill="none" stroke="#fbbf24" stroke-width="5" opacity=".85" filter="url(#aglow)"/>
<circle cx="64" cy="64" r="61" fill="none" stroke="#ff9d5c" stroke-width="3" opacity=".95"/>
<circle cx="64" cy="64" r="63" fill="none" stroke="#ffffff" stroke-width="1.5" opacity=".35"/>
<text x="64" y="20" text-anchor="middle" font-size="11" font-weight="bold" fill="#ff9d5c" opacity=".95">传说</text>
</svg>