<svg xmlns="http://www.w3.org/2000/svg" viewBox="0 0 320 420" width="320" height="420">
<defs>
  <linearGradient id="bg" x1="0" y1="0" x2="0" y2="1">
    <stop offset="0%" stop-color="#fffbeb"/><stop offset="55%" stop-color="#ffffff"/><stop offset="100%" stop-color="#fef3c7"/>
  </linearGradient>
  <radialGradient id="halo" cx="50%" cy="50%" r="50%">
    <stop offset="0%" stop-color="#fbbf24" stop-opacity=".6"/><stop offset="100%" stop-color="#fbbf24" stop-opacity="0"/>
  </radialGradient>
  <radialGradient id="face" cx="50%" cy="36%" r="72%">
    <stop offset="0%" stop-color="#ffffff" stop-opacity=".28"/><stop offset="100%" stop-color="#000000" stop-opacity=".08"/>
  </radialGradient>
  <linearGradient id="iris" x1="0" y1="0" x2="0" y2="1">
    <stop offset="0%" stop-color="#67e8f9"/><stop offset="100%" stop-color="#b45309"/>
  </linearGradient>
  <linearGradient id="cloth" x1="0" y1="0" x2="0" y2="1">
    <stop offset="0%" stop-color="#fbbf24"/><stop offset="100%" stop-color="#b45309"/>
  </linearGradient>
  <filter id="hglow" x="-60%" y="-60%" width="220%" height="220%">
      <feGaussianBlur stdDeviation="4" result="b"/><feMerge><feMergeNode in="b"/><feMergeNode in="SourceGraphic"/></feMerge>
    </filter>
</defs>
<rect width="320" height="420" fill="url(#bg)"/>
<circle cx="160" cy="150" r="128" fill="url(#halo)" filter="url(#hglow)"/>
<circle cx="160" cy="150" r="100" fill="none" stroke="#fbbf24" stroke-width="2.5" opacity=".4"/>
<circle cx="272" cy="150" r="2" fill="#b45309" opacity=".35"/><circle cx="239.19595949289334" cy="229.1959594928933" r="3" fill="#b45309" opacity=".35"/><circle cx="160" cy="262" r="4" fill="#b45309" opacity=".35"/><circle cx="80.80404050710669" cy="229.19595949289334" r="2" fill="#b45309" opacity=".35"/><circle cx="48" cy="150" r="3" fill="#b45309" opacity=".35"/><circle cx="80.80404050710666" cy="70.80404050710669" r="4" fill="#b45309" opacity=".35"/><circle cx="159.99999999999997" cy="38" r="2" fill="#b45309" opacity=".35"/><circle cx="239.1959594928933" cy="70.80404050710666" r="3" fill="#b45309" opacity=".35"/>
<path d="M44 29 l4.5 9.3 l10.200000000000001 1.5 l-7.5 7.199999999999999 l1.7999999999999998 10.200000000000001 l-9 -4.8 l-9 4.8 l1.7999999999999998 -10.200000000000001 l-7.5 -7.199999999999999 l10.200000000000001 -1.5 z" fill="#fbbf24"/>
<path d="M276 50 l3 6.2 l6.800000000000001 1 l-5 4.8 l1.2 6.800000000000001 l-6 -3.2 l-6 3.2 l1.2 -6.800000000000001 l-5 -4.8 l6.800000000000001 -1 z" fill="#fbbf24"/>
<ellipse cx="160" cy="392" rx="72" ry="12" fill="#b45309" opacity=".18"/>
<!-- 腿 -->
<rect x="138" y="322" width="16" height="52" rx="8" fill="#b45309"/>
<rect x="166" y="322" width="16" height="52" rx="8" fill="#b45309"/>
<ellipse cx="146" cy="376" rx="14" ry="8" fill="#3b3455"/>
<ellipse cx="174" cy="376" rx="14" ry="8" fill="#3b3455"/>
<!-- 身体 -->
<path d="M160 196 q-40 4 -44 44 l-4 74 q44 14 96 0 l-4 -74 q-4 -40 -44 -44 z" fill="url(#cloth)"/>
<path d="M160 196 q-16 2 -20 10 q22 12 40 0 q-4 -8 -20 -10 z" fill="#fff" opacity=".55"/>
<path d="M116 258 q44 16 88 0" fill="none" stroke="#ffe9a8" stroke-width="4" opacity=".9"/>
<circle cx="160" cy="258" r="9" fill="#ffe9a8"/>
<!-- 手臂 -->
<rect x="108" y="212" width="16" height="54" rx="8" fill="#fbbf24" transform="rotate(-8 116 240)"/>
<rect x="196" y="212" width="16" height="54" rx="8" fill="#fbbf24" transform="rotate(8 204 240)"/>
<circle cx="112" cy="272" r="11" fill="#f8dcc0"/>
<circle cx="208" cy="272" r="11" fill="#f8dcc0"/>
<!-- 披风 -->
<path d="M120 200 q-34 10 -34 60 l6 56 q26 -18 28 -46 z" fill="#b45309" opacity=".85"/>
<path d="M200 200 q34 10 34 60 l-6 56 q-26 -18 -28 -46 z" fill="#b45309" opacity=".85"/>
<g transform="translate(250,250) scale(1)">
                <path d="M0 -40 q26 40 0 80" fill="none" stroke="#8d84ad" stroke-width="6" stroke-linecap="round"/>
                <line x1="0" y1="-40" x2="0" y2="40" stroke="#fff" stroke-width="2" opacity=".8"/></g>
<!-- 头 -->
<ellipse cx="160" cy="132" rx="69.12" ry="67" fill="#b8ab99"/>
                    <path d="M90.88 117 h27 v110.00000000000001 h-27 z" fill="#b8ab99"/>
                    <path d="M202.12 117 h27 v110.00000000000001 h-27 z" fill="#b8ab99"/>
<ellipse cx="160" cy="132" rx="54" ry="50" fill="#f8dcc0"/>
<ellipse cx="160" cy="132" rx="54" ry="50" fill="url(#face)"/>
<ellipse cx="107.08" cy="143" rx="5.94" ry="8.64" fill="#f8dcc0"/>
<ellipse cx="212.92000000000002" cy="143" rx="5.94" ry="8.64" fill="#f8dcc0"/>

    <g>
      <ellipse cx="138.4" cy="139" rx="14.580000000000002" ry="15" fill="#fffdf8"/>
      <ellipse cx="138.4" cy="139.9" rx="11.9556" ry="13.8" fill="url(#iris)"/>
      <ellipse cx="138.4" cy="141.1" rx="4.957200000000001" ry="7.800000000000001" fill="#241634" opacity=".9"/>
      <circle cx="133.7344" cy="133.6" r="4.3740000000000006" fill="#fff" opacity=".96"/>
      <circle cx="142.774" cy="144.1" r="1.8954000000000002" fill="#fff" opacity=".72"/>
      <path d="M123.5284 131.5 q14.580000000000002 -3 29.743200000000005 0" stroke="#2b2140" stroke-width="4.5" fill="none" stroke-linecap="round"/>
      <path d="M125.278 151.9 q13.122000000000002 4.5 26.244000000000003 0"
            stroke="#2b2140" stroke-width="1.5" fill="none" stroke-linecap="round" opacity=".55"/>
      <circle cx="123.09100000000001" cy="125.5" r="1.8954000000000002" fill="#2b2140" opacity=".5"/>
    </g>

    <g>
      <ellipse cx="181.6" cy="139" rx="14.580000000000002" ry="15" fill="#fffdf8"/>
      <ellipse cx="181.6" cy="139.9" rx="11.9556" ry="13.8" fill="url(#iris)"/>
      <ellipse cx="181.6" cy="141.1" rx="4.957200000000001" ry="7.800000000000001" fill="#241634" opacity=".9"/>
      <circle cx="176.93439999999998" cy="133.6" r="4.3740000000000006" fill="#fff" opacity=".96"/>
      <circle cx="185.974" cy="144.1" r="1.8954000000000002" fill="#fff" opacity=".72"/>
      <path d="M166.7284 131.5 q14.580000000000002 -3 29.743200000000005 0" stroke="#2b2140" stroke-width="4.5" fill="none" stroke-linecap="round"/>
      <path d="M168.47799999999998 151.9 q13.122000000000002 4.5 26.244000000000003 0"
            stroke="#2b2140" stroke-width="1.5" fill="none" stroke-linecap="round" opacity=".55"/>
      <circle cx="166.291" cy="125.5" r="1.8954000000000002" fill="#2b2140" opacity=".5"/>
    </g>
<ellipse cx="126.52000000000001" cy="157" rx="8.1" ry="4" fill="#ff8fa8" opacity=".38"/>
<ellipse cx="193.48" cy="157" rx="8.1" ry="4" fill="#ff8fa8" opacity=".38"/>
<path d="M133 159.5 q29.700000000000003 -10 54 -2.5" fill="none" stroke="#c4626f" stroke-width="2.4" stroke-linecap="round"/>
<path d="M103.84 115 q8.64 -45 46.44 -31
                     q22.68 8 19.439999999999998 18 q-18.360000000000003 9 -27 -5
                     q5.4 22 48.6 16 q12.959999999999999 25 -37.8 35
                     q-64.8 -15 -49.68 -50 z" fill="#fff2e0"/>
<path d="M116.8 87 q-11.88 -37.8 8.64 -32.4 q14.040000000000001 8.64 10.8 27 z" fill="#fff2e0" stroke="#b45309" stroke-width="1.35"/>
                    <path d="M203.2 87 q11.88 -37.8 -8.64 -32.4 q-14.040000000000001 8.64 -10.8 27 z" fill="#fff2e0" stroke="#b45309" stroke-width="1.35"/>
<g transform="translate(160,52)">
  <path d="M0 -10 l3 7 l8 0 l-6 6 l2 8 l-7 -4 l-7 4 l2 -8 l-6 -6 l8 0 z" fill="#ff9d5c" stroke="#fff" stroke-width="1" opacity=".95"/>
</g>
</svg>