<svg xmlns="http://www.w3.org/2000/svg" viewBox="0 0 320 420" width="320" height="420">
<defs>
  <linearGradient id="bg" x1="0" y1="0" x2="0" y2="1">
    <stop offset="0%" stop-color="#fff0e2"/><stop offset="55%" stop-color="#ffffff"/><stop offset="100%" stop-color="#ffd3a8"/>
  </linearGradient>
  <radialGradient id="halo" cx="50%" cy="50%" r="50%">
    <stop offset="0%" stop-color="#ff7a45" stop-opacity=".55"/><stop offset="100%" stop-color="#ff7a45" stop-opacity="0"/>
  </radialGradient>
  <linearGradient id="iris" x1="0" y1="0" x2="0" y2="1">
    <stop offset="0%" stop-color="#f472b6"/><stop offset="100%" stop-color="#c2410c"/>
  </linearGradient>
  <linearGradient id="cloth" x1="0" y1="0" x2="0" y2="1">
    <stop offset="0%" stop-color="#ff7a45"/><stop offset="100%" stop-color="#c2410c"/>
  </linearGradient>
</defs>
<rect width="320" height="420" fill="url(#bg)"/>
<circle cx="160" cy="150" r="120" fill="url(#halo)"/>
<circle cx="160" cy="150" r="96" fill="none" stroke="#ff7a45" stroke-width="2" opacity=".35"/>
<circle cx="268" cy="150" r="2" fill="#c2410c" opacity=".35"/><circle cx="236.36753236814712" cy="226.36753236814712" r="3" fill="#c2410c" opacity=".35"/><circle cx="160" cy="258" r="4" fill="#c2410c" opacity=".35"/><circle cx="83.63246763185288" cy="226.36753236814712" r="2" fill="#c2410c" opacity=".35"/><circle cx="52" cy="150" r="3" fill="#c2410c" opacity=".35"/><circle cx="83.63246763185285" cy="73.63246763185288" r="4" fill="#c2410c" opacity=".35"/><circle cx="159.99999999999997" cy="42" r="2" fill="#c2410c" opacity=".35"/><circle cx="236.36753236814712" cy="73.63246763185285" r="3" fill="#c2410c" opacity=".35"/>
<path d="M44 27.5 q12 13.5 3 24 q-1.5 -9 -7.5 -4.5 q-10.5 6 -9 -10.5 q-7.5 -6 -1.5 -13.5 z" fill="#ff7a45"/>
<path d="M276 49 q8 9 2 16 q-1 -6 -5 -3 q-7 4 -6 -7 q-5 -4 -1 -9 z" fill="#ff7a45"/>
<ellipse cx="160" cy="392" rx="72" ry="12" fill="#c2410c" opacity=".18"/>
<!-- 腿 -->
<rect x="138" y="322" width="16" height="52" rx="8" fill="#c2410c"/>
<rect x="166" y="322" width="16" height="52" rx="8" fill="#c2410c"/>
<ellipse cx="146" cy="376" rx="14" ry="8" fill="#3b3455"/>
<ellipse cx="174" cy="376" rx="14" ry="8" fill="#3b3455"/>
<!-- 身体 -->
<path d="M160 196 q-40 4 -44 44 l-4 74 q44 14 96 0 l-4 -74 q-4 -40 -44 -44 z" fill="url(#cloth)"/>
<path d="M160 196 q-16 2 -20 10 q22 12 40 0 q-4 -8 -20 -10 z" fill="#fff" opacity=".55"/>
<path d="M116 258 q44 16 88 0" fill="none" stroke="#ffe9a8" stroke-width="4" opacity=".9"/>
<circle cx="160" cy="258" r="9" fill="#ffe9a8"/>
<!-- 手臂 -->
<rect x="108" y="212" width="16" height="54" rx="8" fill="#ff7a45" transform="rotate(-8 116 240)"/>
<rect x="196" y="212" width="16" height="54" rx="8" fill="#ff7a45" transform="rotate(8 204 240)"/>
<circle cx="112" cy="272" r="11" fill="#ffe4d6"/>
<circle cx="208" cy="272" r="11" fill="#ffe4d6"/>
<!-- 披风 -->
<path d="M120 200 q-34 10 -34 60 l6 56 q26 -18 28 -46 z" fill="#c2410c" opacity=".85"/>
<path d="M200 200 q34 10 34 60 l-6 56 q-26 -18 -28 -46 z" fill="#c2410c" opacity=".85"/>
<g transform="translate(250,250) scale(1)">
                <path d="M-22 -26 h20 v52 h-20 z M2 -26 h20 v52 h-20 z" fill="#e8e2f5" stroke="#8d84ad" stroke-width="3"/>
                <path d="M-2 -26 v52" stroke="#ff7a45" stroke-width="5"/></g>
<!-- 头 -->
<ellipse cx="160" cy="132" rx="67.7376" ry="60.300000000000004" fill="#441700"/>
<ellipse cx="160" cy="132" rx="54" ry="50" fill="#ffe4d6"/>
<ellipse cx="107.08" cy="143" rx="5.94" ry="8.64" fill="#ffe4d6"/>
<ellipse cx="212.92000000000002" cy="143" rx="5.94" ry="8.64" fill="#ffe4d6"/>

    <g>
      <ellipse cx="138.4" cy="139" rx="14.580000000000002" ry="15" fill="#fffdf8"/>
      <ellipse cx="138.4" cy="139.9" rx="11.9556" ry="13.8" fill="url(#iris)"/>
      <ellipse cx="138.4" cy="141.1" rx="4.957200000000001" ry="7.800000000000001" fill="#241634" opacity=".9"/>
      <circle cx="133.7344" cy="133.6" r="4.3740000000000006" fill="#fff" opacity=".96"/>
      <circle cx="142.774" cy="144.1" r="1.8954000000000002" fill="#fff" opacity=".72"/>
      <path d="M123.5284 128.2 q14.580000000000002 -12.9 29.743200000000005 0"
            stroke="#2b2140" stroke-width="3.5999999999999996" fill="none" stroke-linecap="round"/>
      <path d="M125.278 151.9 q13.122000000000002 4.5 26.244000000000003 0"
            stroke="#2b2140" stroke-width="1.5" fill="none" stroke-linecap="round" opacity=".55"/>
      <circle cx="123.09100000000001" cy="125.5" r="1.8954000000000002" fill="#2b2140" opacity=".5"/>
    </g>

    <g>
      <ellipse cx="181.6" cy="139" rx="14.580000000000002" ry="15" fill="#fffdf8"/>
      <ellipse cx="181.6" cy="139.9" rx="11.9556" ry="13.8" fill="url(#iris)"/>
      <ellipse cx="181.6" cy="141.1" rx="4.957200000000001" ry="7.800000000000001" fill="#241634" opacity=".9"/>
      <circle cx="176.93439999999998" cy="133.6" r="4.3740000000000006" fill="#fff" opacity=".96"/>
      <circle cx="185.974" cy="144.1" r="1.8954000000000002" fill="#fff" opacity=".72"/>
      <path d="M166.7284 128.2 q14.580000000000002 -12.9 29.743200000000005 0"
            stroke="#2b2140" stroke-width="3.5999999999999996" fill="none" stroke-linecap="round"/>
      <path d="M168.47799999999998 151.9 q13.122000000000002 4.5 26.244000000000003 0"
            stroke="#2b2140" stroke-width="1.5" fill="none" stroke-linecap="round" opacity=".55"/>
      <circle cx="166.291" cy="125.5" r="1.8954000000000002" fill="#2b2140" opacity=".5"/>
    </g>
<ellipse cx="126.52000000000001" cy="157" rx="8.1" ry="4" fill="#ff8fa8" opacity=".38"/>
<ellipse cx="193.48" cy="157" rx="8.1" ry="4" fill="#ff8fa8" opacity=".38"/>
<path d="M154 155 q6 8 12 0" fill="none" stroke="#c4626f" stroke-width="3" stroke-linecap="round"/>
<path d="M104.92 114 q15.120000000000001 -36 33.48 -15
                     q6.4799999999999995 -30 27 3 q10.8 -31 28.080000000000002 -5
                     q16.2 -25 19.439999999999998 15 q-32.4 25 -108 5 z" fill="#8b5e3c"/>
<path d="M113.56 91 l-5.4 -32.4 l27 19.439999999999998 z" fill="#8b5e3c" stroke="#c2410c" stroke-width="1.6199999999999999"/>
                    <path d="M206.44 91 l5.4 -32.4 l-27 19.439999999999998 z" fill="#8b5e3c" stroke="#c2410c" stroke-width="1.6199999999999999"/>
</svg>