<svg xmlns="http://www.w3.org/2000/svg" viewBox="0 0 200 200" width="200" height="200">
  <defs>
    <radialGradient id="bg" cx="50%" cy="35%" r="75%">
      <stop offset="0%" stop-color="#fff3c4"/>
      <stop offset="100%" stop-color="#ffd56b"/>
    </radialGradient>
    <linearGradient id="body" x1="0" y1="0" x2="0" y2="1">
      <stop offset="0%" stop-color="#ffffff"/>
      <stop offset="100%" stop-color="#fff3c4"/>
    </linearGradient>
  </defs>
  <circle cx="100" cy="100" r="96" fill="url(#bg)" stroke="#cfc8e8" stroke-width="6"/>
  <circle cx="100" cy="100" r="82" fill="none" stroke="#ffffff" stroke-width="3" opacity=".5"/>
  
            <circle cx="100" cy="56" r="26" fill="#fff0a8" opacity=".35"/>
            <path d="M100 30 L108 50 L130 52 L113 66 L119 88 L100 76 L81 88 L87 66 L70 52 L92 50 Z" fill="#ffd56b" stroke="#a06a12" stroke-width="3"/>
  <!-- 身体 -->
  <ellipse cx="100" cy="118" rx="52" ry="46" fill="url(#body)" stroke="#a06a12" stroke-width="4"/>
  <!-- 眼睛 -->
  <ellipse cx="82" cy="112" rx="8" ry="10" fill="#a06a12"/>
  <ellipse cx="118" cy="112" rx="8" ry="10" fill="#a06a12"/>
  <circle cx="85" cy="108" r="3" fill="#ffffff"/>
  <circle cx="121" cy="108" r="3" fill="#ffffff"/>
  <!-- 腮红 -->
  <ellipse cx="70" cy="128" rx="9" ry="6" fill="#ffd56b" opacity=".55"/>
  <ellipse cx="130" cy="128" rx="9" ry="6" fill="#ffd56b" opacity=".55"/>
  <!-- 嘴 -->
  <path d="M92 134 Q100 142 108 134" stroke="#a06a12" stroke-width="3.5" fill="none" stroke-linecap="round"/>
  <!-- 元素标记 -->
  <text x="100" y="182" text-anchor="middle" font-family="sans-serif" font-size="22" font-weight="700" fill="#a06a12" opacity=".85">光</text>
  
        <g transform="translate(150,46) scale(.8)">
            <path d="M0 -16 L5 -5 L17 -5 L7 3 L11 15 L0 8 L-11 15 L-7 3 L-17 -5 L-5 -5 Z" fill="#e8e2ff" stroke="#6e6788" stroke-width="2"/>
        </g>
</svg>